ISO-10303-21;
HEADER;
FILE_DESCRIPTION(('ViewDefinition [ReferenceView_V1.2]','ExchangeRequirement [Architecture]'), '2;1');
FILE_NAME('','2026-08-25T10:39:46',(''),('',''),'','cadwork version 32.0 Build 533','');
FILE_SCHEMA(('IFC4'));
ENDSEC;
DATA;
#1= IFCPROJECT('2OV$NuWyD4IxBc83jKxCux',#7,'',$,$,$,$,(#16),#11);
#2= IFCPERSON($,'unknown','user',$,$,$,$,$);
#3= IFCORGANIZATION($,'unknown','organization',$,$);
#4= IFCPERSONANDORGANIZATION(#2,#3,$);
#5= IFCORGANIZATION($,'Cadwork Informatik AG, CH - 4051 Basel',$,$,$);
#6= IFCAPPLICATION(#5,'32.0','cadwork version 32.0 Build 533','');
#7= IFCOWNERHISTORY(#4,#6,$,.ADDED.,1787647186,$,$,1787647186);
#9= IFCSIUNIT(*,.LENGTHUNIT.,$,.METRE.);
#10= IFCSIUNIT(*,.PLANEANGLEUNIT.,$,.RADIAN.);
#11= IFCUNITASSIGNMENT((#9,#10,#12,#13,#14,#15));
#12= IFCSIUNIT(*,.MASSUNIT.,.KILO.,.GRAM.);
#13= IFCSIUNIT(*,.AREAUNIT.,$,.SQUARE_METRE.);
#14= IFCSIUNIT(*,.TIMEUNIT.,$,.SECOND.);
#15= IFCSIUNIT(*,.VOLUMEUNIT.,$,.CUBIC_METRE.);
#16= IFCGEOMETRICREPRESENTATIONCONTEXT($,'Model',3,0.00001,#17,#22);
#17= IFCAXIS2PLACEMENT3D(#18,#19,#20);
#18= IFCCARTESIANPOINT((0.,0.,0.));
#19= IFCDIRECTION((0.,0.,1.));
#20= IFCDIRECTION((1.,0.,0.));
#21= IFCGEOMETRICREPRESENTATIONSUBCONTEXT('Body','Model',*,*,*,*,#16,$,.MODEL_VIEW.,$);
#22= IFCDIRECTION((-0.,1.));
#23= IFCSITE('2rjQl5y6T7AuBlwqO_0nlc',#7,'Projekt','IfcSite',$,#24,$,$,.ELEMENT.,$,$,0.,$,#27);
#24= IFCLOCALPLACEMENT($,#25);
#25= IFCAXIS2PLACEMENT3D(#26,#19,#20);
#26= IFCCARTESIANPOINT((0.,0.,0.));
#27= IFCPOSTALADDRESS($,$,$,$,(''),$,'','','','');
#28= IFCRELAGGREGATES('3c22WrTbrDyxs2d0dO$QFI',#7,$,$,#1,(#23));
#29= IFCBUILDING('1gzFqMsV1ETh7oiOHzblWl',#7,'Geb\X2\00E4\X0\ude 1','',$,#30,$,$,.ELEMENT.,$,$,$);
#30= IFCLOCALPLACEMENT(#24,#31);
#31= IFCAXIS2PLACEMENT3D(#32,#19,#20);
#32= IFCCARTESIANPOINT((0.,0.,0.));
#33= IFCRELAGGREGATES('0RrbWwPO51NAbXtV8TYRCU',#7,$,$,#23,(#29));
#34= IFCBUILDINGSTOREY('0VmIOYewP9GvxjaD7IRtiG',#7,'Fundament','',$,#35,$,$,.ELEMENT.,-0.005);
#35= IFCLOCALPLACEMENT(#30,#36);
#36= IFCAXIS2PLACEMENT3D(#37,#19,#20);
#37= IFCCARTESIANPOINT((0.,0.,0.));
#38= IFCRELAGGREGATES('1HfDrWCYH8yfMLjJPqheIV',#7,$,$,#29,(#34));
#39= IFCSLAB('3sr6MjNHHFfg7RuN$D__P$',#7,'Bodenplatte','',$,#40,#44,$,.NOTDEFINED.);
#40= IFCLOCALPLACEMENT(#35,#41);
#41= IFCAXIS2PLACEMENT3D(#42,#19,#43);
#42= IFCCARTESIANPOINT((2.,0.,-0.01));
#43= IFCDIRECTION((0.,1.,0.));
#44= IFCPRODUCTDEFINITIONSHAPE($,$,(#45));
#45= IFCSHAPEREPRESENTATION(#21,'Body','Tessellation',(#47));
#46= IFCCARTESIANPOINTLIST3D(((0.,-2.,-0.01),(6.8,-2.,-0.01),(6.8,-2.,0.01),(0.,-2.,0.01),(6.8,2.,-0.01),(6.8,2.,0.01),(0.,2.,-0.01),(0.,2.,0.01)));
#47= IFCPOLYGONALFACESET(#46,.T.,(#48,#49,#50,#51,#52,#53),$);
#48= IFCINDEXEDPOLYGONALFACE((1,2,3,4));
#49= IFCINDEXEDPOLYGONALFACE((2,5,6,3));
#50= IFCINDEXEDPOLYGONALFACE((5,7,8,6));
#51= IFCINDEXEDPOLYGONALFACE((7,1,4,8));
#52= IFCINDEXEDPOLYGONALFACE((2,1,7,5));
#53= IFCINDEXEDPOLYGONALFACE((8,4,3,6));
#54= IFCPRESENTATIONLAYERASSIGNMENT('',$,(#45,#71,#93,#110,#125,#140,#162,#181,#202,#223,#244,#265,#286,#307,#328,#351,#368,#383,#400,#417,#432,#449,#466),$);
#55= IFCMATERIAL('Beton',$,'');
#56= IFCRELASSOCIATESMATERIAL('2u$w7Lhi58P9cOrmNxo34n',#7,$,$,(#39),#55);
#57= IFCSTYLEDITEM(#47,(#58),$);
#58= IFCSURFACESTYLE('Beton',.BOTH.,(#59));
#59= IFCSURFACESTYLERENDERING(#60,$,$,$,$,$,$,$,.NOTDEFINED.);
#60= IFCCOLOURRGB($,0.6,0.6,0.6);
#61= IFCPROPERTYSET('29pXLxfiL50hPVK83DITXL',#7,'Cadwork3dProperties',$,(#62));
#62= IFCPROPERTYSINGLEVALUE('No. production list',$,IFCINTEGER(0),$);
#63= IFCRELDEFINESBYPROPERTIES('1qcFjDUgz4uwI0ugMQyYuD',#7,$,$,(#39,#65,#86,#103,#120,#135,#157,#174,#197,#218,#239,#260,#281,#302,#323,#344,#361,#378,#393,#410,#427,#442,#459),#61);
#64= IFCRELCONTAINEDINSPATIALSTRUCTURE('2pafbr6wL65B5bwgkwfgQA',#7,$,$,(#39,#65,#86,#103,#120,#135,#157,#174,#197,#218,#239,#260,#281,#302,#323,#344,#361,#378,#393,#410,#427,#442,#459),#34);
#65= IFCBEAM('22cszfISn3uvv0cm5qZQb$',#7,'Stiel','',$,#66,#70,$,.BEAM.);
#66= IFCLOCALPLACEMENT(#35,#67);
#67= IFCAXIS2PLACEMENT3D(#68,#69,#19);
#68= IFCCARTESIANPOINT((0.06,0.61,0.));
#69= IFCDIRECTION((0.,-1.,0.));
#70= IFCPRODUCTDEFINITIONSHAPE($,$,(#71));
#71= IFCSHAPEREPRESENTATION(#21,'Body','Tessellation',(#73));
#72= IFCCARTESIANPOINTLIST3D(((2.3,0.06,-0.06),(2.3,0.06,0.06),(2.3,-0.06,0.06),(2.3,-0.06,-0.06),(0.,0.06,0.06),(0.,0.06,-0.06),(0.,-0.06,-0.06),(0.,-0.06,0.06)));
#73= IFCPOLYGONALFACESET(#72,.T.,(#74,#75,#76,#77,#78,#79),$);
#74= IFCINDEXEDPOLYGONALFACE((1,2,3,4));
#75= IFCINDEXEDPOLYGONALFACE((5,6,7,8));
#76= IFCINDEXEDPOLYGONALFACE((4,7,6,1));
#77= IFCINDEXEDPOLYGONALFACE((3,8,7,4));
#78= IFCINDEXEDPOLYGONALFACE((2,5,8,3));
#79= IFCINDEXEDPOLYGONALFACE((1,6,5,2));
#80= IFCMATERIAL('KVH C24 NSi',$,'');
#81= IFCRELASSOCIATESMATERIAL('2lvTKJ5pP0TAsV3GtSMX95',#7,$,$,(#65,#86,#103,#120,#174,#197,#218,#239,#260,#281,#302,#323,#344,#361,#378,#393,#410,#427,#442,#459),#80);
#82= IFCSTYLEDITEM(#73,(#83),$);
#83= IFCSURFACESTYLE('KVH C24 NSi',.BOTH.,(#84));
#84= IFCSURFACESTYLERENDERING(#85,$,$,$,$,$,$,$,.NOTDEFINED.);
#85= IFCCOLOURRGB($,1.,1.,1.);
#86= IFCBEAM('0Epb_69CP9OOg_4wl22fwd',#7,'Kopfband','',$,#87,#92,$,.BEAM.);
#87= IFCLOCALPLACEMENT(#35,#88);
#88= IFCAXIS2PLACEMENT3D(#89,#90,#91);
#89= IFCCARTESIANPOINT((0.06,0.594598,1.840138));
#90= IFCDIRECTION((0.,0.743294,0.668965));
#91= IFCDIRECTION((0.,-0.668965,0.743294));
#92= IFCPRODUCTDEFINITIONSHAPE($,$,(#93));
#93= IFCSHAPEREPRESENTATION(#21,'Body','Tessellation',(#95));
#94= IFCCARTESIANPOINTLIST3D(((0.672681,-0.06,-0.06),(0.672681,0.06,-0.06),(0.564681,0.06,0.06),(0.564681,-0.06,0.06),(0.,0.06,-0.06),(0.133333,0.06,0.06),(0.,-0.06,-0.06),(0.133333,-0.06,0.06)));
#95= IFCPOLYGONALFACESET(#94,.T.,(#96,#97,#98,#99,#100,#101),$);
#96= IFCINDEXEDPOLYGONALFACE((1,2,3,4));
#97= IFCINDEXEDPOLYGONALFACE((3,2,5,6));
#98= IFCINDEXEDPOLYGONALFACE((2,1,7,5));
#99= IFCINDEXEDPOLYGONALFACE((6,5,7,8));
#100= IFCINDEXEDPOLYGONALFACE((1,4,8,7));
#101= IFCINDEXEDPOLYGONALFACE((4,3,6,8));
#102= IFCSTYLEDITEM(#95,(#83),$);
#103= IFCBEAM('3Mri08qEPCC8$6U8ca5wXW',#7,'Kopfband','',$,#104,#109,$,.BEAM.);
#104= IFCLOCALPLACEMENT(#35,#105);
#105= IFCAXIS2PLACEMENT3D(#106,#107,#108);
#106= IFCCARTESIANPOINT((0.06,0.625402,1.840138));
#107= IFCDIRECTION((0.,-0.743294,0.668965));
#108= IFCDIRECTION((0.,0.668965,0.743294));
#109= IFCPRODUCTDEFINITIONSHAPE($,$,(#110));
#110= IFCSHAPEREPRESENTATION(#21,'Body','Tessellation',(#112));
#111= IFCCARTESIANPOINTLIST3D(((0.672681,-0.06,-0.06),(0.672681,0.06,-0.06),(0.564681,0.06,0.06),(0.564681,-0.06,0.06),(0.133333,-0.06,0.06),(0.,-0.06,-0.06),(0.,0.06,-0.06),(0.133333,0.06,0.06)));
#112= IFCPOLYGONALFACESET(#111,.T.,(#113,#114,#115,#116,#117,#118),$);
#113= IFCINDEXEDPOLYGONALFACE((1,2,3,4));
#114= IFCINDEXEDPOLYGONALFACE((1,4,5,6));
#115= IFCINDEXEDPOLYGONALFACE((2,1,6,7));
#116= IFCINDEXEDPOLYGONALFACE((6,5,8,7));
#117= IFCINDEXEDPOLYGONALFACE((3,2,7,8));
#118= IFCINDEXEDPOLYGONALFACE((4,3,8,5));
#119= IFCSTYLEDITEM(#112,(#83),$);
#120= IFCBEAM('2xfNpXVfH9VguMH0ijQehB',#7,'Stiel','',$,#121,#124,$,.BEAM.);
#121= IFCLOCALPLACEMENT(#35,#122);
#122= IFCAXIS2PLACEMENT3D(#123,#69,#19);
#123= IFCCARTESIANPOINT((3.94,0.61,0.));
#124= IFCPRODUCTDEFINITIONSHAPE($,$,(#125));
#125= IFCSHAPEREPRESENTATION(#21,'Body','Tessellation',(#127));
#126= IFCCARTESIANPOINTLIST3D(((2.1,-0.06,-0.06),(2.1,0.06,-0.06),(2.1,0.06,0.06),(2.1,-0.06,0.06),(0.,-0.06,0.06),(0.,-0.06,-0.06),(0.,0.06,0.06),(0.,0.06,-0.06)));
#127= IFCPOLYGONALFACESET(#126,.T.,(#128,#129,#130,#131,#132,#133),$);
#128= IFCINDEXEDPOLYGONALFACE((1,2,3,4));
#129= IFCINDEXEDPOLYGONALFACE((1,4,5,6));
#130= IFCINDEXEDPOLYGONALFACE((4,3,7,5));
#131= IFCINDEXEDPOLYGONALFACE((7,8,6,5));
#132= IFCINDEXEDPOLYGONALFACE((2,1,6,8));
#133= IFCINDEXEDPOLYGONALFACE((3,2,8,7));
#134= IFCSTYLEDITEM(#127,(#83),$);
#135= IFCBEAM('2Fp0w2ivP7sPJWfTSOMZ$R',#7,'Pfette','',$,#136,#139,$,.BEAM.);
#136= IFCLOCALPLACEMENT(#35,#137);
#137= IFCAXIS2PLACEMENT3D(#138,#19,#43);
#138= IFCCARTESIANPOINT((0.06,0.,2.42));
#139= IFCPRODUCTDEFINITIONSHAPE($,$,(#140));
#140= IFCSHAPEREPRESENTATION(#21,'Body','Tessellation',(#142));
#141= IFCCARTESIANPOINTLIST3D(((6.8,-0.06,-0.06),(6.74,-0.06,-0.12),(6.74,0.06,-0.12),(6.8,0.06,-0.06),(6.8,-0.06,0.12),(6.8,0.06,0.12),(0.,0.06,0.12),(0.,-0.06,0.12),(0.06,0.06,-0.12),(0.,0.06,-0.06),(0.06,-0.06,-0.12),(0.,-0.06,-0.06)));
#142= IFCPOLYGONALFACESET(#141,.T.,(#143,#144,#145,#146,#147,#148,#149,#150),$);
#143= IFCINDEXEDPOLYGONALFACE((1,2,3,4));
#144= IFCINDEXEDPOLYGONALFACE((5,1,4,6));
#145= IFCINDEXEDPOLYGONALFACE((5,6,7,8));
#146= IFCINDEXEDPOLYGONALFACE((6,4,3,9,10,7));
#147= IFCINDEXEDPOLYGONALFACE((10,9,11,12));
#148= IFCINDEXEDPOLYGONALFACE((7,10,12,8));
#149= IFCINDEXEDPOLYGONALFACE((1,5,8,12,11,2));
#150= IFCINDEXEDPOLYGONALFACE((3,2,11,9));
#151= IFCMATERIAL('GL 30 c',$,'');
#152= IFCRELASSOCIATESMATERIAL('1TQgDZmfL37wzAhTm_2yLF',#7,$,$,(#135,#157),#151);
#153= IFCSTYLEDITEM(#142,(#154),$);
#154= IFCSURFACESTYLE('GL 30 c',.BOTH.,(#155));
#155= IFCSURFACESTYLERENDERING(#156,$,$,$,$,$,$,$,.NOTDEFINED.);
#156= IFCCOLOURRGB($,0.,0.411765,0.901961);
#157= IFCBEAM('3duflMuVPBYvD8NgEgiL90',#7,'Pfette','',$,#158,#161,$,.BEAM.);
#158= IFCLOCALPLACEMENT(#35,#159);
#159= IFCAXIS2PLACEMENT3D(#160,#19,#43);
#160= IFCCARTESIANPOINT((3.94,0.,2.22));
#161= IFCPRODUCTDEFINITIONSHAPE($,$,(#162));
#162= IFCSHAPEREPRESENTATION(#21,'Body','Tessellation',(#164));
#163= IFCCARTESIANPOINTLIST3D(((6.8,-0.06,-0.06),(6.74,-0.06,-0.12),(6.74,0.06,-0.12),(6.8,0.06,-0.06),(6.8,-0.06,0.12),(6.8,0.06,0.12),(0.,0.06,0.12),(0.,-0.06,0.12),(0.06,0.06,-0.12),(0.,0.06,-0.06),(0.06,-0.06,-0.12),(0.,-0.06,-0.06)));
#164= IFCPOLYGONALFACESET(#163,.T.,(#165,#166,#167,#168,#169,#170,#171,#172),$);
#165= IFCINDEXEDPOLYGONALFACE((1,2,3,4));
#166= IFCINDEXEDPOLYGONALFACE((5,1,4,6));
#167= IFCINDEXEDPOLYGONALFACE((5,6,7,8));
#168= IFCINDEXEDPOLYGONALFACE((6,4,3,9,10,7));
#169= IFCINDEXEDPOLYGONALFACE((10,9,11,12));
#170= IFCINDEXEDPOLYGONALFACE((7,10,12,8));
#171= IFCINDEXEDPOLYGONALFACE((1,5,8,12,11,2));
#172= IFCINDEXEDPOLYGONALFACE((3,2,11,9));
#173= IFCSTYLEDITEM(#164,(#154),$);
#174= IFCBEAM('3BKVJ5gY54fQTmqwrPOhnA',#7,'Sparren','',$,#175,#180,$,.BEAM.);
#175= IFCLOCALPLACEMENT(#35,#176);
#176= IFCAXIS2PLACEMENT3D(#177,#178,#179);
#177= IFCCARTESIANPOINT((0.005148,0.04,2.639867));
#178= IFCDIRECTION((0.051478,0.,0.998674));
#179= IFCDIRECTION((0.998674,0.,-0.051478));
#180= IFCPRODUCTDEFINITIONSHAPE($,$,(#181));
#181= IFCSHAPEREPRESENTATION(#21,'Body','Tessellation',(#183));
#182= IFCCARTESIANPOINTLIST3D(((0.,0.04,0.1),(-0.,0.04,-0.1),(-0.,-0.04,-0.1),(0.,-0.04,0.1),(4.004992,0.04,-0.093823),(4.005311,0.04,-0.1),(4.005311,-0.04,-0.1),(4.004992,-0.04,-0.093823),(3.885151,0.04,-0.1),(3.885151,-0.04,-0.1),(0.120159,-0.04,-0.1),(0.120159,0.04,-0.1),(0.119841,0.04,-0.093823),(0.119841,-0.04,-0.093823),(4.304992,-0.04,0.1),(4.304992,0.04,0.1),(4.304992,-0.04,-0.06),(4.264992,-0.04,-0.1),(4.264992,0.04,-0.1),(4.304992,0.04,-0.06)));
#183= IFCPOLYGONALFACESET(#182,.T.,(#184,#185,#186,#187,#188,#189,#190,#191,#192,#193,#194,#195),$);
#184= IFCINDEXEDPOLYGONALFACE((1,2,3,4));
#185= IFCINDEXEDPOLYGONALFACE((5,6,7,8));
#186= IFCINDEXEDPOLYGONALFACE((9,5,8,10));
#187= IFCINDEXEDPOLYGONALFACE((11,12,9,10));
#188= IFCINDEXEDPOLYGONALFACE((2,13,14,3));
#189= IFCINDEXEDPOLYGONALFACE((12,11,14,13));
#190= IFCINDEXEDPOLYGONALFACE((15,16,1,4));
#191= IFCINDEXEDPOLYGONALFACE((17,15,4,3,14,11,10,8,7,18));
#192= IFCINDEXEDPOLYGONALFACE((19,18,7,6));
#193= IFCINDEXEDPOLYGONALFACE((16,20,19,6,5,9,12,13,2,1));
#194= IFCINDEXEDPOLYGONALFACE((15,17,20,16));
#195= IFCINDEXEDPOLYGONALFACE((17,18,19,20));
#196= IFCSTYLEDITEM(#183,(#83),$);
#197= IFCBEAM('1rUzKoeSf82AJ5tjpRF2TI',#7,'Sparren','',$,#198,#201,$,.BEAM.);
#198= IFCLOCALPLACEMENT(#35,#199);
#199= IFCAXIS2PLACEMENT3D(#200,#178,#179);
#200= IFCCARTESIANPOINT((0.005148,6.76,2.639867));
#201= IFCPRODUCTDEFINITIONSHAPE($,$,(#202));
#202= IFCSHAPEREPRESENTATION(#21,'Body','Tessellation',(#204));
#203= IFCCARTESIANPOINTLIST3D(((0.120159,-0.04,-0.1),(0.120159,0.04,-0.1),(3.885151,0.04,-0.1),(3.885151,-0.04,-0.1),(0.,0.04,0.1),(-0.,0.04,-0.1),(-0.,-0.04,-0.1),(0.,-0.04,0.1),(4.004992,-0.04,-0.093823),(4.004992,0.04,-0.093823),(4.005311,-0.04,-0.1),(4.005311,0.04,-0.1),(0.119841,-0.04,-0.093823),(0.119841,0.04,-0.093823),(4.304992,-0.04,0.1),(4.304992,0.04,0.1),(4.304992,-0.04,-0.06),(4.264992,-0.04,-0.1),(4.264992,0.04,-0.1),(4.304992,0.04,-0.06)));
#204= IFCPOLYGONALFACESET(#203,.T.,(#205,#206,#207,#208,#209,#210,#211,#212,#213,#214,#215,#216),$);
#205= IFCINDEXEDPOLYGONALFACE((1,2,3,4));
#206= IFCINDEXEDPOLYGONALFACE((5,6,7,8));
#207= IFCINDEXEDPOLYGONALFACE((9,4,3,10));
#208= IFCINDEXEDPOLYGONALFACE((11,9,10,12));
#209= IFCINDEXEDPOLYGONALFACE((2,1,13,14));
#210= IFCINDEXEDPOLYGONALFACE((13,7,6,14));
#211= IFCINDEXEDPOLYGONALFACE((15,16,5,8));
#212= IFCINDEXEDPOLYGONALFACE((17,15,8,7,13,1,4,9,11,18));
#213= IFCINDEXEDPOLYGONALFACE((19,18,11,12));
#214= IFCINDEXEDPOLYGONALFACE((16,20,19,12,10,3,2,14,6,5));
#215= IFCINDEXEDPOLYGONALFACE((15,17,20,16));
#216= IFCINDEXEDPOLYGONALFACE((17,18,19,20));
#217= IFCSTYLEDITEM(#204,(#83),$);
#218= IFCBEAM('2yBEJkjBL35xn5kOrHVBAi',#7,'Sparren','',$,#219,#222,$,.BEAM.);
#219= IFCLOCALPLACEMENT(#35,#220);
#220= IFCAXIS2PLACEMENT3D(#221,#178,#179);
#221= IFCCARTESIANPOINT((0.005148,1.96,2.639867));
#222= IFCPRODUCTDEFINITIONSHAPE($,$,(#223));
#223= IFCSHAPEREPRESENTATION(#21,'Body','Tessellation',(#225));
#224= IFCCARTESIANPOINTLIST3D(((0.,0.04,0.1),(-0.,0.04,-0.1),(-0.,-0.04,-0.1),(0.,-0.04,0.1),(4.004992,0.04,-0.093823),(4.005311,0.04,-0.1),(4.005311,-0.04,-0.1),(4.004992,-0.04,-0.093823),(3.885151,0.04,-0.1),(3.885151,-0.04,-0.1),(0.120159,-0.04,-0.1),(0.120159,0.04,-0.1),(0.119841,0.04,-0.093823),(0.119841,-0.04,-0.093823),(4.304992,-0.04,0.1),(4.304992,0.04,0.1),(4.304992,-0.04,-0.06),(4.264992,-0.04,-0.1),(4.264992,0.04,-0.1),(4.304992,0.04,-0.06)));
#225= IFCPOLYGONALFACESET(#224,.T.,(#226,#227,#228,#229,#230,#231,#232,#233,#234,#235,#236,#237),$);
#226= IFCINDEXEDPOLYGONALFACE((1,2,3,4));
#227= IFCINDEXEDPOLYGONALFACE((5,6,7,8));
#228= IFCINDEXEDPOLYGONALFACE((9,5,8,10));
#229= IFCINDEXEDPOLYGONALFACE((11,12,9,10));
#230= IFCINDEXEDPOLYGONALFACE((2,13,14,3));
#231= IFCINDEXEDPOLYGONALFACE((12,11,14,13));
#232= IFCINDEXEDPOLYGONALFACE((15,16,1,4));
#233= IFCINDEXEDPOLYGONALFACE((17,15,4,3,14,11,10,8,7,18));
#234= IFCINDEXEDPOLYGONALFACE((19,18,7,6));
#235= IFCINDEXEDPOLYGONALFACE((16,20,19,6,5,9,12,13,2,1));
#236= IFCINDEXEDPOLYGONALFACE((15,17,20,16));
#237= IFCINDEXEDPOLYGONALFACE((17,18,19,20));
#238= IFCSTYLEDITEM(#225,(#83),$);
#239= IFCBEAM('2WNIXkRob75QgthW0k2GMz',#7,'Sparren','',$,#240,#243,$,.BEAM.);
#240= IFCLOCALPLACEMENT(#35,#241);
#241= IFCAXIS2PLACEMENT3D(#242,#178,#179);
#242= IFCCARTESIANPOINT((0.005148,1.,2.639867));
#243= IFCPRODUCTDEFINITIONSHAPE($,$,(#244));
#244= IFCSHAPEREPRESENTATION(#21,'Body','Tessellation',(#246));
#245= IFCCARTESIANPOINTLIST3D(((0.,0.04,0.1),(-0.,0.04,-0.1),(-0.,-0.04,-0.1),(0.,-0.04,0.1),(4.004992,0.04,-0.093823),(4.005311,0.04,-0.1),(4.005311,-0.04,-0.1),(4.004992,-0.04,-0.093823),(3.885151,0.04,-0.1),(3.885151,-0.04,-0.1),(0.120159,-0.04,-0.1),(0.120159,0.04,-0.1),(0.119841,0.04,-0.093823),(0.119841,-0.04,-0.093823),(4.304992,-0.04,0.1),(4.304992,0.04,0.1),(4.304992,-0.04,-0.06),(4.264992,-0.04,-0.1),(4.264992,0.04,-0.1),(4.304992,0.04,-0.06)));
#246= IFCPOLYGONALFACESET(#245,.T.,(#247,#248,#249,#250,#251,#252,#253,#254,#255,#256,#257,#258),$);
#247= IFCINDEXEDPOLYGONALFACE((1,2,3,4));
#248= IFCINDEXEDPOLYGONALFACE((5,6,7,8));
#249= IFCINDEXEDPOLYGONALFACE((9,5,8,10));
#250= IFCINDEXEDPOLYGONALFACE((11,12,9,10));
#251= IFCINDEXEDPOLYGONALFACE((2,13,14,3));
#252= IFCINDEXEDPOLYGONALFACE((12,11,14,13));
#253= IFCINDEXEDPOLYGONALFACE((15,16,1,4));
#254= IFCINDEXEDPOLYGONALFACE((17,15,4,3,14,11,10,8,7,18));
#255= IFCINDEXEDPOLYGONALFACE((19,18,7,6));
#256= IFCINDEXEDPOLYGONALFACE((16,20,19,6,5,9,12,13,2,1));
#257= IFCINDEXEDPOLYGONALFACE((15,17,20,16));
#258= IFCINDEXEDPOLYGONALFACE((17,18,19,20));
#259= IFCSTYLEDITEM(#246,(#83),$);
#260= IFCBEAM('1AEooNo9HEFxH_5vEuPy6$',#7,'Sparren','',$,#261,#264,$,.BEAM.);
#261= IFCLOCALPLACEMENT(#35,#262);
#262= IFCAXIS2PLACEMENT3D(#263,#178,#179);
#263= IFCCARTESIANPOINT((0.005148,5.8,2.639867));
#264= IFCPRODUCTDEFINITIONSHAPE($,$,(#265));
#265= IFCSHAPEREPRESENTATION(#21,'Body','Tessellation',(#267));
#266= IFCCARTESIANPOINTLIST3D(((0.,0.04,0.1),(-0.,0.04,-0.1),(-0.,-0.04,-0.1),(0.,-0.04,0.1),(4.004992,0.04,-0.093823),(4.005311,0.04,-0.1),(4.005311,-0.04,-0.1),(4.004992,-0.04,-0.093823),(3.885151,0.04,-0.1),(3.885151,-0.04,-0.1),(0.120159,-0.04,-0.1),(0.120159,0.04,-0.1),(0.119841,0.04,-0.093823),(0.119841,-0.04,-0.093823),(4.304992,-0.04,0.1),(4.304992,0.04,0.1),(4.304992,-0.04,-0.06),(4.264992,-0.04,-0.1),(4.264992,0.04,-0.1),(4.304992,0.04,-0.06)));
#267= IFCPOLYGONALFACESET(#266,.T.,(#268,#269,#270,#271,#272,#273,#274,#275,#276,#277,#278,#279),$);
#268= IFCINDEXEDPOLYGONALFACE((1,2,3,4));
#269= IFCINDEXEDPOLYGONALFACE((5,6,7,8));
#270= IFCINDEXEDPOLYGONALFACE((9,5,8,10));
#271= IFCINDEXEDPOLYGONALFACE((11,12,9,10));
#272= IFCINDEXEDPOLYGONALFACE((2,13,14,3));
#273= IFCINDEXEDPOLYGONALFACE((12,11,14,13));
#274= IFCINDEXEDPOLYGONALFACE((15,16,1,4));
#275= IFCINDEXEDPOLYGONALFACE((17,15,4,3,14,11,10,8,7,18));
#276= IFCINDEXEDPOLYGONALFACE((19,18,7,6));
#277= IFCINDEXEDPOLYGONALFACE((16,20,19,6,5,9,12,13,2,1));
#278= IFCINDEXEDPOLYGONALFACE((15,17,20,16));
#279= IFCINDEXEDPOLYGONALFACE((17,18,19,20));
#280= IFCSTYLEDITEM(#267,(#83),$);
#281= IFCBEAM('2tcSQROn95uBMRuAypwLRR',#7,'Sparren','',$,#282,#285,$,.BEAM.);
#282= IFCLOCALPLACEMENT(#35,#283);
#283= IFCAXIS2PLACEMENT3D(#284,#178,#179);
#284= IFCCARTESIANPOINT((0.005148,4.84,2.639867));
#285= IFCPRODUCTDEFINITIONSHAPE($,$,(#286));
#286= IFCSHAPEREPRESENTATION(#21,'Body','Tessellation',(#288));
#287= IFCCARTESIANPOINTLIST3D(((0.,0.04,0.1),(-0.,0.04,-0.1),(-0.,-0.04,-0.1),(0.,-0.04,0.1),(4.004992,0.04,-0.093823),(4.005311,0.04,-0.1),(4.005311,-0.04,-0.1),(4.004992,-0.04,-0.093823),(3.885151,0.04,-0.1),(3.885151,-0.04,-0.1),(0.120159,-0.04,-0.1),(0.120159,0.04,-0.1),(0.119841,0.04,-0.093823),(0.119841,-0.04,-0.093823),(4.304992,-0.04,0.1),(4.304992,0.04,0.1),(4.304992,-0.04,-0.06),(4.264992,-0.04,-0.1),(4.264992,0.04,-0.1),(4.304992,0.04,-0.06)));
#288= IFCPOLYGONALFACESET(#287,.T.,(#289,#290,#291,#292,#293,#294,#295,#296,#297,#298,#299,#300),$);
#289= IFCINDEXEDPOLYGONALFACE((1,2,3,4));
#290= IFCINDEXEDPOLYGONALFACE((5,6,7,8));
#291= IFCINDEXEDPOLYGONALFACE((9,5,8,10));
#292= IFCINDEXEDPOLYGONALFACE((11,12,9,10));
#293= IFCINDEXEDPOLYGONALFACE((2,13,14,3));
#294= IFCINDEXEDPOLYGONALFACE((12,11,14,13));
#295= IFCINDEXEDPOLYGONALFACE((15,16,1,4));
#296= IFCINDEXEDPOLYGONALFACE((17,15,4,3,14,11,10,8,7,18));
#297= IFCINDEXEDPOLYGONALFACE((19,18,7,6));
#298= IFCINDEXEDPOLYGONALFACE((16,20,19,6,5,9,12,13,2,1));
#299= IFCINDEXEDPOLYGONALFACE((15,17,20,16));
#300= IFCINDEXEDPOLYGONALFACE((17,18,19,20));
#301= IFCSTYLEDITEM(#288,(#83),$);
#302= IFCBEAM('2VXgLQTKv0iwVCMOa_x7Zt',#7,'Sparren','',$,#303,#306,$,.BEAM.);
#303= IFCLOCALPLACEMENT(#35,#304);
#304= IFCAXIS2PLACEMENT3D(#305,#178,#179);
#305= IFCCARTESIANPOINT((0.005148,3.88,2.639867));
#306= IFCPRODUCTDEFINITIONSHAPE($,$,(#307));
#307= IFCSHAPEREPRESENTATION(#21,'Body','Tessellation',(#309));
#308= IFCCARTESIANPOINTLIST3D(((0.,0.04,0.1),(-0.,0.04,-0.1),(-0.,-0.04,-0.1),(0.,-0.04,0.1),(4.004992,0.04,-0.093823),(4.005311,0.04,-0.1),(4.005311,-0.04,-0.1),(4.004992,-0.04,-0.093823),(3.885151,0.04,-0.1),(3.885151,-0.04,-0.1),(0.120159,-0.04,-0.1),(0.120159,0.04,-0.1),(0.119841,0.04,-0.093823),(0.119841,-0.04,-0.093823),(4.304992,-0.04,0.1),(4.304992,0.04,0.1),(4.304992,-0.04,-0.06),(4.264992,-0.04,-0.1),(4.264992,0.04,-0.1),(4.304992,0.04,-0.06)));
#309= IFCPOLYGONALFACESET(#308,.T.,(#310,#311,#312,#313,#314,#315,#316,#317,#318,#319,#320,#321),$);
#310= IFCINDEXEDPOLYGONALFACE((1,2,3,4));
#311= IFCINDEXEDPOLYGONALFACE((5,6,7,8));
#312= IFCINDEXEDPOLYGONALFACE((9,5,8,10));
#313= IFCINDEXEDPOLYGONALFACE((11,12,9,10));
#314= IFCINDEXEDPOLYGONALFACE((2,13,14,3));
#315= IFCINDEXEDPOLYGONALFACE((12,11,14,13));
#316= IFCINDEXEDPOLYGONALFACE((15,16,1,4));
#317= IFCINDEXEDPOLYGONALFACE((17,15,4,3,14,11,10,8,7,18));
#318= IFCINDEXEDPOLYGONALFACE((19,18,7,6));
#319= IFCINDEXEDPOLYGONALFACE((16,20,19,6,5,9,12,13,2,1));
#320= IFCINDEXEDPOLYGONALFACE((15,17,20,16));
#321= IFCINDEXEDPOLYGONALFACE((17,18,19,20));
#322= IFCSTYLEDITEM(#309,(#83),$);
#323= IFCBEAM('2EjbCHV7H4B92ZysAeXB4p',#7,'Sparren','',$,#324,#327,$,.BEAM.);
#324= IFCLOCALPLACEMENT(#35,#325);
#325= IFCAXIS2PLACEMENT3D(#326,#178,#179);
#326= IFCCARTESIANPOINT((0.005148,2.92,2.639867));
#327= IFCPRODUCTDEFINITIONSHAPE($,$,(#328));
#328= IFCSHAPEREPRESENTATION(#21,'Body','Tessellation',(#330));
#329= IFCCARTESIANPOINTLIST3D(((0.,0.04,0.1),(-0.,0.04,-0.1),(-0.,-0.04,-0.1),(0.,-0.04,0.1),(4.004992,0.04,-0.093823),(4.005311,0.04,-0.1),(4.005311,-0.04,-0.1),(4.004992,-0.04,-0.093823),(3.885151,0.04,-0.1),(3.885151,-0.04,-0.1),(0.120159,-0.04,-0.1),(0.120159,0.04,-0.1),(0.119841,0.04,-0.093823),(0.119841,-0.04,-0.093823),(4.304992,-0.04,0.1),(4.304992,0.04,0.1),(4.304992,-0.04,-0.06),(4.264992,-0.04,-0.1),(4.264992,0.04,-0.1),(4.304992,0.04,-0.06)));
#330= IFCPOLYGONALFACESET(#329,.T.,(#331,#332,#333,#334,#335,#336,#337,#338,#339,#340,#341,#342),$);
#331= IFCINDEXEDPOLYGONALFACE((1,2,3,4));
#332= IFCINDEXEDPOLYGONALFACE((5,6,7,8));
#333= IFCINDEXEDPOLYGONALFACE((9,5,8,10));
#334= IFCINDEXEDPOLYGONALFACE((11,12,9,10));
#335= IFCINDEXEDPOLYGONALFACE((2,13,14,3));
#336= IFCINDEXEDPOLYGONALFACE((12,11,14,13));
#337= IFCINDEXEDPOLYGONALFACE((15,16,1,4));
#338= IFCINDEXEDPOLYGONALFACE((17,15,4,3,14,11,10,8,7,18));
#339= IFCINDEXEDPOLYGONALFACE((19,18,7,6));
#340= IFCINDEXEDPOLYGONALFACE((16,20,19,6,5,9,12,13,2,1));
#341= IFCINDEXEDPOLYGONALFACE((15,17,20,16));
#342= IFCINDEXEDPOLYGONALFACE((17,18,19,20));
#343= IFCSTYLEDITEM(#330,(#83),$);
#344= IFCBEAM('0eOBa0YijFAh1iURZG9LaJ',#7,'Kopfband','',$,#345,#350,$,.BEAM.);
#345= IFCLOCALPLACEMENT(#35,#346);
#346= IFCAXIS2PLACEMENT3D(#347,#348,#349);
#347= IFCCARTESIANPOINT((3.94,0.594598,1.640138));
#348= IFCDIRECTION((0.,0.743294,0.668965));
#349= IFCDIRECTION((0.,-0.668965,0.743294));
#350= IFCPRODUCTDEFINITIONSHAPE($,$,(#351));
#351= IFCSHAPEREPRESENTATION(#21,'Body','Tessellation',(#353));
#352= IFCCARTESIANPOINTLIST3D(((0.672681,-0.06,-0.06),(0.672681,0.06,-0.06),(0.564681,0.06,0.06),(0.564681,-0.06,0.06),(0.,0.06,-0.06),(0.133333,0.06,0.06),(0.,-0.06,-0.06),(0.133333,-0.06,0.06)));
#353= IFCPOLYGONALFACESET(#352,.T.,(#354,#355,#356,#357,#358,#359),$);
#354= IFCINDEXEDPOLYGONALFACE((1,2,3,4));
#355= IFCINDEXEDPOLYGONALFACE((3,2,5,6));
#356= IFCINDEXEDPOLYGONALFACE((2,1,7,5));
#357= IFCINDEXEDPOLYGONALFACE((6,5,7,8));
#358= IFCINDEXEDPOLYGONALFACE((1,4,8,7));
#359= IFCINDEXEDPOLYGONALFACE((4,3,6,8));
#360= IFCSTYLEDITEM(#353,(#83),$);
#361= IFCBEAM('1flEgwv6bAUPWuSB42aJPr',#7,'Kopfband','',$,#362,#367,$,.BEAM.);
#362= IFCLOCALPLACEMENT(#35,#363);
#363= IFCAXIS2PLACEMENT3D(#364,#365,#366);
#364= IFCCARTESIANPOINT((3.94,0.625402,1.640138));
#365= IFCDIRECTION((0.,-0.743294,0.668965));
#366= IFCDIRECTION((0.,0.668965,0.743294));
#367= IFCPRODUCTDEFINITIONSHAPE($,$,(#368));
#368= IFCSHAPEREPRESENTATION(#21,'Body','Tessellation',(#370));
#369= IFCCARTESIANPOINTLIST3D(((0.672681,-0.06,-0.06),(0.672681,0.06,-0.06),(0.564681,0.06,0.06),(0.564681,-0.06,0.06),(0.133333,-0.06,0.06),(0.,-0.06,-0.06),(0.,0.06,-0.06),(0.133333,0.06,0.06)));
#370= IFCPOLYGONALFACESET(#369,.T.,(#371,#372,#373,#374,#375,#376),$);
#371= IFCINDEXEDPOLYGONALFACE((1,2,3,4));
#372= IFCINDEXEDPOLYGONALFACE((1,4,5,6));
#373= IFCINDEXEDPOLYGONALFACE((2,1,6,7));
#374= IFCINDEXEDPOLYGONALFACE((6,5,8,7));
#375= IFCINDEXEDPOLYGONALFACE((3,2,7,8));
#376= IFCINDEXEDPOLYGONALFACE((4,3,8,5));
#377= IFCSTYLEDITEM(#370,(#83),$);
#378= IFCBEAM('1RD4xMwUDALhDlR4WqdGn1',#7,'Stiel','',$,#379,#382,$,.BEAM.);
#379= IFCLOCALPLACEMENT(#35,#380);
#380= IFCAXIS2PLACEMENT3D(#381,#43,#19);
#381= IFCCARTESIANPOINT((0.06,6.19,0.));
#382= IFCPRODUCTDEFINITIONSHAPE($,$,(#383));
#383= IFCSHAPEREPRESENTATION(#21,'Body','Tessellation',(#385));
#384= IFCCARTESIANPOINTLIST3D(((2.3,-0.06,0.06),(2.3,-0.06,-0.06),(2.3,0.06,-0.06),(2.3,0.06,0.06),(0.,-0.06,-0.06),(0.,-0.06,0.06),(0.,0.06,0.06),(0.,0.06,-0.06)));
#385= IFCPOLYGONALFACESET(#384,.T.,(#386,#387,#388,#389,#390,#391),$);
#386= IFCINDEXEDPOLYGONALFACE((1,2,3,4));
#387= IFCINDEXEDPOLYGONALFACE((5,6,7,8));
#388= IFCINDEXEDPOLYGONALFACE((8,3,2,5));
#389= IFCINDEXEDPOLYGONALFACE((7,4,3,8));
#390= IFCINDEXEDPOLYGONALFACE((6,1,4,7));
#391= IFCINDEXEDPOLYGONALFACE((5,2,1,6));
#392= IFCSTYLEDITEM(#385,(#83),$);
#393= IFCBEAM('15NEVZ1514Sv4zupvHK7CF',#7,'Kopfband','',$,#394,#399,$,.BEAM.);
#394= IFCLOCALPLACEMENT(#35,#395);
#395= IFCAXIS2PLACEMENT3D(#396,#397,#398);
#396= IFCCARTESIANPOINT((0.06,6.174598,1.840138));
#397= IFCDIRECTION((0.,0.743294,0.668965));
#398= IFCDIRECTION((0.,-0.668965,0.743294));
#399= IFCPRODUCTDEFINITIONSHAPE($,$,(#400));
#400= IFCSHAPEREPRESENTATION(#21,'Body','Tessellation',(#402));
#401= IFCCARTESIANPOINTLIST3D(((0.672681,-0.06,-0.06),(0.672681,0.06,-0.06),(0.564681,0.06,0.06),(0.564681,-0.06,0.06),(0.,0.06,-0.06),(0.133333,0.06,0.06),(0.,-0.06,-0.06),(0.133333,-0.06,0.06)));
#402= IFCPOLYGONALFACESET(#401,.T.,(#403,#404,#405,#406,#407,#408),$);
#403= IFCINDEXEDPOLYGONALFACE((1,2,3,4));
#404= IFCINDEXEDPOLYGONALFACE((3,2,5,6));
#405= IFCINDEXEDPOLYGONALFACE((2,1,7,5));
#406= IFCINDEXEDPOLYGONALFACE((6,5,7,8));
#407= IFCINDEXEDPOLYGONALFACE((1,4,8,7));
#408= IFCINDEXEDPOLYGONALFACE((4,3,6,8));
#409= IFCSTYLEDITEM(#402,(#83),$);
#410= IFCBEAM('090ourKkr3Q8En0agBVouL',#7,'Kopfband','',$,#411,#416,$,.BEAM.);
#411= IFCLOCALPLACEMENT(#35,#412);
#412= IFCAXIS2PLACEMENT3D(#413,#414,#415);
#413= IFCCARTESIANPOINT((0.06,6.205402,1.840138));
#414= IFCDIRECTION((0.,-0.743294,0.668965));
#415= IFCDIRECTION((0.,0.668965,0.743294));
#416= IFCPRODUCTDEFINITIONSHAPE($,$,(#417));
#417= IFCSHAPEREPRESENTATION(#21,'Body','Tessellation',(#419));
#418= IFCCARTESIANPOINTLIST3D(((0.672681,-0.06,-0.06),(0.672681,0.06,-0.06),(0.564681,0.06,0.06),(0.564681,-0.06,0.06),(0.133333,-0.06,0.06),(0.,-0.06,-0.06),(0.,0.06,-0.06),(0.133333,0.06,0.06)));
#419= IFCPOLYGONALFACESET(#418,.T.,(#420,#421,#422,#423,#424,#425),$);
#420= IFCINDEXEDPOLYGONALFACE((1,2,3,4));
#421= IFCINDEXEDPOLYGONALFACE((1,4,5,6));
#422= IFCINDEXEDPOLYGONALFACE((2,1,6,7));
#423= IFCINDEXEDPOLYGONALFACE((6,5,8,7));
#424= IFCINDEXEDPOLYGONALFACE((3,2,7,8));
#425= IFCINDEXEDPOLYGONALFACE((4,3,8,5));
#426= IFCSTYLEDITEM(#419,(#83),$);
#427= IFCBEAM('3gflX7Gln4vPIWrF1mRIbi',#7,'Stiel','',$,#428,#431,$,.BEAM.);
#428= IFCLOCALPLACEMENT(#35,#429);
#429= IFCAXIS2PLACEMENT3D(#430,#43,#19);
#430= IFCCARTESIANPOINT((3.94,6.19,0.));
#431= IFCPRODUCTDEFINITIONSHAPE($,$,(#432));
#432= IFCSHAPEREPRESENTATION(#21,'Body','Tessellation',(#434));
#433= IFCCARTESIANPOINTLIST3D(((2.1,-0.06,-0.06),(2.1,0.06,-0.06),(2.1,0.06,0.06),(2.1,-0.06,0.06),(0.,0.06,-0.06),(0.,0.06,0.06),(0.,-0.06,0.06),(0.,-0.06,-0.06)));
#434= IFCPOLYGONALFACESET(#433,.T.,(#435,#436,#437,#438,#439,#440),$);
#435= IFCINDEXEDPOLYGONALFACE((1,2,3,4));
#436= IFCINDEXEDPOLYGONALFACE((3,2,5,6));
#437= IFCINDEXEDPOLYGONALFACE((4,3,6,7));
#438= IFCINDEXEDPOLYGONALFACE((8,7,6,5));
#439= IFCINDEXEDPOLYGONALFACE((2,1,8,5));
#440= IFCINDEXEDPOLYGONALFACE((1,4,7,8));
#441= IFCSTYLEDITEM(#434,(#83),$);
#442= IFCBEAM('3ramh9iSvAf9j6b2_WdPWa',#7,'Kopfband','',$,#443,#448,$,.BEAM.);
#443= IFCLOCALPLACEMENT(#35,#444);
#444= IFCAXIS2PLACEMENT3D(#445,#446,#447);
#445= IFCCARTESIANPOINT((3.94,6.205402,1.640138));
#446= IFCDIRECTION((0.,-0.743294,0.668965));
#447= IFCDIRECTION((0.,0.668965,0.743294));
#448= IFCPRODUCTDEFINITIONSHAPE($,$,(#449));
#449= IFCSHAPEREPRESENTATION(#21,'Body','Tessellation',(#451));
#450= IFCCARTESIANPOINTLIST3D(((0.672681,-0.06,-0.06),(0.672681,0.06,-0.06),(0.564681,0.06,0.06),(0.564681,-0.06,0.06),(0.133333,-0.06,0.06),(0.,-0.06,-0.06),(0.,0.06,-0.06),(0.133333,0.06,0.06)));
#451= IFCPOLYGONALFACESET(#450,.T.,(#452,#453,#454,#455,#456,#457),$);
#452= IFCINDEXEDPOLYGONALFACE((1,2,3,4));
#453= IFCINDEXEDPOLYGONALFACE((1,4,5,6));
#454= IFCINDEXEDPOLYGONALFACE((2,1,6,7));
#455= IFCINDEXEDPOLYGONALFACE((6,5,8,7));
#456= IFCINDEXEDPOLYGONALFACE((3,2,7,8));
#457= IFCINDEXEDPOLYGONALFACE((4,3,8,5));
#458= IFCSTYLEDITEM(#451,(#83),$);
#459= IFCBEAM('2vNhuDOaTDug_OC4A7oUwo',#7,'Kopfband','',$,#460,#465,$,.BEAM.);
#460= IFCLOCALPLACEMENT(#35,#461);
#461= IFCAXIS2PLACEMENT3D(#462,#463,#464);
#462= IFCCARTESIANPOINT((3.94,6.174598,1.640138));
#463= IFCDIRECTION((0.,0.743294,0.668965));
#464= IFCDIRECTION((0.,-0.668965,0.743294));
#465= IFCPRODUCTDEFINITIONSHAPE($,$,(#466));
#466= IFCSHAPEREPRESENTATION(#21,'Body','Tessellation',(#468));
#467= IFCCARTESIANPOINTLIST3D(((0.672681,-0.06,-0.06),(0.672681,0.06,-0.06),(0.564681,0.06,0.06),(0.564681,-0.06,0.06),(0.,0.06,-0.06),(0.133333,0.06,0.06),(0.,-0.06,-0.06),(0.133333,-0.06,0.06)));
#468= IFCPOLYGONALFACESET(#467,.T.,(#469,#470,#471,#472,#473,#474),$);
#469= IFCINDEXEDPOLYGONALFACE((1,2,3,4));
#470= IFCINDEXEDPOLYGONALFACE((3,2,5,6));
#471= IFCINDEXEDPOLYGONALFACE((2,1,7,5));
#472= IFCINDEXEDPOLYGONALFACE((6,5,7,8));
#473= IFCINDEXEDPOLYGONALFACE((1,4,8,7));
#474= IFCINDEXEDPOLYGONALFACE((4,3,6,8));
#475= IFCSTYLEDITEM(#468,(#83),$);
ENDSEC;
END-ISO-10303-21;
